<svg width="378" height="267" viewBox="0 0 378 267" fill="none" xmlns="http://www.w3.org/2000/svg">
<g opacity="0.6">
<path d="M375.755 62.6271L367.481 57.3917L368.543 56.7067C373.047 52.9401 375.269 48.2456 374.794 43.5001C374.319 38.7547 371.18 34.2829 365.964 30.9204C360.747 27.5579 353.81 25.5346 346.448 25.2286C339.086 24.9226 331.803 26.3548 325.96 29.2575L324.821 29.8936L316.699 24.5604C315.991 24.1042 315.151 23.7423 314.226 23.4954C313.301 23.2485 312.31 23.1214 311.309 23.1214C310.309 23.1214 309.317 23.2485 308.393 23.4954C307.468 23.7423 306.628 24.1042 305.92 24.5604C305.212 25.0166 304.651 25.5582 304.268 26.1542C303.885 26.7503 303.688 27.3891 303.688 28.0343C303.688 28.6795 303.885 29.3183 304.268 29.9144C304.651 30.5105 305.212 31.0521 305.92 31.5083L314.194 36.7926L304.326 43.1044L296.128 37.8201C294.706 36.9088 292.782 36.3973 290.777 36.3973C288.771 36.3973 286.847 36.9088 285.425 37.8201C284.714 38.275 284.149 38.8161 283.764 39.4124C283.378 40.0086 283.18 40.6481 283.18 41.2941C283.18 41.94 283.378 42.5795 283.764 43.1758C284.149 43.772 284.714 44.3132 285.425 44.768L293.623 50.0523L182.799 121.489C135.736 111.214 64.4594 127.605 29.7698 149.965C10.3915 163.002 -0.293067 180.413 0.0061179 198.467C0.305303 216.52 11.5644 233.78 31.3703 246.547C51.1762 259.314 77.9528 266.571 105.961 266.764C133.969 266.957 160.98 260.07 181.205 247.579C215.894 225.218 241.323 179.323 225.383 148.938L336.207 77.5015L344.405 82.7858C345.108 83.2481 345.946 83.6159 346.872 83.8679C347.797 84.1199 348.79 84.251 349.794 84.2537C351.302 84.2593 352.778 83.9754 354.035 83.4382C355.291 82.901 356.271 82.1347 356.849 81.2371C357.427 80.3396 357.578 79.3513 357.281 78.3985C356.984 77.4456 356.254 76.5712 355.184 75.8868L346.986 70.6025L356.778 64.2417L364.976 69.575C365.682 70.0336 366.521 70.3976 367.446 70.646C368.371 70.8944 369.363 71.0223 370.365 71.0223C371.367 71.0223 372.359 70.8944 373.284 70.646C374.209 70.3976 375.049 70.0336 375.755 69.575C376.466 69.1201 377.031 68.579 377.416 67.9827C377.802 67.3865 378 66.747 378 66.1011C378 65.4551 377.802 64.8156 377.416 64.2194C377.031 63.6231 376.466 63.0819 375.755 62.6271ZM357.841 36.1076C360.599 37.9346 362.143 40.3836 362.143 42.9332C362.143 45.4828 360.599 47.9318 357.841 49.7588L336.207 63.6546L315.105 50.0523L336.663 36.1076C339.497 34.3292 343.296 33.3342 347.252 33.3342C351.207 33.3342 355.006 34.3292 357.841 36.1076ZM119.872 203.347L114.634 199.971L320.267 67.1775L325.504 70.5536L119.872 203.347ZM189.175 185.439C183.499 201.945 171.494 217.27 154.258 230.013C147.893 234.129 140.333 237.396 132.009 239.628C123.686 241.86 114.762 243.014 105.746 243.023C96.7312 243.032 87.8015 241.896 79.4671 239.681C71.1328 237.465 63.557 234.214 57.1723 230.111C44.2779 221.825 37.0178 210.577 36.9894 198.841C36.9609 187.105 44.1663 175.842 57.0205 167.531C82.7179 153.148 114.99 144.559 148.944 143.066L87.687 182.601L85.0302 180.888C84.3246 180.43 83.485 180.066 82.56 179.817C81.635 179.569 80.6429 179.441 79.6408 179.441C78.6388 179.441 77.6466 179.569 76.7216 179.817C75.7966 180.066 74.9571 180.43 74.2514 180.888C72.8376 181.805 72.0441 183.045 72.0441 184.338C72.0441 185.631 72.8376 186.871 74.2514 187.787L82.2976 192.974L122.225 218.857C122.905 219.369 123.743 219.785 124.684 220.079C125.626 220.373 126.652 220.538 127.697 220.564C128.743 220.59 129.785 220.476 130.759 220.23C131.733 219.984 132.618 219.611 133.358 219.134C134.097 218.658 134.676 218.087 135.058 217.459C135.439 216.832 135.616 216.16 135.575 215.486C135.535 214.812 135.279 214.151 134.823 213.544C134.368 212.937 133.722 212.397 132.928 211.958L130.271 210.197L191.528 170.76C191.388 175.697 190.498 180.614 188.871 185.439H189.175ZM309.64 60.3274L103.627 193.072L98.3899 189.5L304.326 56.9513L309.64 60.3274ZM170.502 240.631C153.117 251.253 129.986 257.081 106.034 256.875C82.0824 256.668 59.2018 250.443 42.2638 239.525C25.3258 228.607 15.6686 213.858 15.3482 198.419C15.0279 182.98 24.0697 168.07 40.5486 156.864C69.5452 138.173 129.208 123.69 170.502 129.415L162.911 134.308C156.756 133.725 150.525 133.544 144.314 133.77C111.446 134.944 67.2679 147.078 45.6344 160.876C29.992 171.05 21.2601 184.813 21.3598 199.136C21.4594 213.46 30.3824 227.172 46.1658 237.255C61.9491 247.338 83.3 252.966 105.521 252.902C127.743 252.838 149.014 247.086 164.657 236.912C183.918 222.85 197.248 205.833 203.369 187.494C206.437 179.014 207.157 170.252 205.495 161.61L213.086 156.717C221.967 183.531 199.498 221.94 170.502 240.631Z" fill="#FFF2D8" fill-opacity="0.34"/>
<path d="M31.804 163.107C30.3423 164.331 29.5655 165.926 29.6332 167.563C29.7009 169.2 30.6079 170.755 32.168 171.91C33.7281 173.065 35.8229 173.732 38.0223 173.773C40.2217 173.814 42.3587 173.226 43.9947 172.131C44.8656 171.548 45.5675 170.839 46.0576 170.048C46.5477 169.256 46.8156 168.398 46.845 167.526C46.8744 166.655 46.6646 165.788 46.2286 164.979C45.7925 164.17 45.1393 163.435 44.3088 162.821C43.4784 162.206 42.4883 161.724 41.3989 161.404C40.3096 161.084 39.144 160.933 37.9735 160.959C36.803 160.986 35.6521 161.191 34.5913 161.56C33.5305 161.929 32.582 162.456 31.804 163.107ZM65.4835 179.105C64.6838 178.508 63.7337 178.034 62.6878 177.711C61.6418 177.388 60.5205 177.222 59.3881 177.222C58.2557 177.222 57.1344 177.388 56.0885 177.711C55.0425 178.034 54.0925 178.508 53.2927 179.105C52.491 179.7 51.8549 180.407 51.4209 181.186C50.9869 181.964 50.7634 182.799 50.7634 183.642C50.7634 184.485 50.9869 185.32 51.4209 186.099C51.8549 186.877 52.491 187.585 53.2927 188.18C54.0925 188.777 55.0425 189.25 56.0885 189.573C57.1344 189.897 58.2557 190.063 59.3881 190.063C60.5205 190.063 61.6418 189.897 62.6878 189.573C63.7337 189.25 64.6838 188.777 65.4835 188.18C66.2852 187.585 66.9213 186.877 67.3554 186.099C67.7894 185.32 68.0128 184.485 68.0128 183.642C68.0128 182.799 67.7894 181.964 67.3554 181.186C66.9213 180.407 66.2852 179.7 65.4835 179.105ZM86.9722 195.102C85.3279 194.014 83.1864 193.435 80.9874 193.486C78.7884 193.536 76.6987 194.211 75.1474 195.373C73.5961 196.534 72.701 198.094 72.6458 199.731C72.5905 201.368 73.3794 202.959 74.8504 204.177C75.6334 204.825 76.5858 205.348 77.6494 205.713C78.713 206.078 79.8654 206.277 81.0362 206.299C82.2069 206.321 83.3713 206.165 84.4581 205.84C85.545 205.515 86.5315 205.029 87.3572 204.411C88.1829 203.793 88.8306 203.056 89.2605 202.245C89.6904 201.434 89.8935 200.566 89.8575 199.695C89.8215 198.823 89.547 197.967 89.0509 197.177C88.5548 196.387 87.8475 195.681 86.9722 195.102ZM303.237 11.1336C304.037 10.5426 304.672 9.83969 305.105 9.0653C305.538 8.29091 305.761 7.46038 305.761 6.62155C305.761 5.78273 305.538 4.95219 305.105 4.1778C304.672 3.40342 304.037 2.70048 303.237 2.10951C302.04 1.22498 300.519 0.624046 298.864 0.382475C297.209 0.140904 295.495 0.26951 293.938 0.75208C292.381 1.23465 291.051 2.04958 290.115 3.09412C289.179 4.13866 288.68 5.36605 288.68 6.62155C288.68 7.87705 289.179 9.10444 290.115 10.149C291.051 11.1935 292.381 12.0085 293.938 12.491C295.495 12.9736 297.209 13.1022 298.864 12.8606C300.519 12.6191 302.04 12.0181 303.237 11.1336Z" fill="#FFF2D8" fill-opacity="0.34"/>
</g>
</svg>
