<svg width="130" height="128" viewBox="0 0 130 128" fill="none" xmlns="http://www.w3.org/2000/svg">
<path d="M67.6021 54.364L56.2271 65.6C59.4215 67.1684 62.0068 69.7231 63.5883 72.874L74.9633 61.636L67.6021 54.364ZM40.0543 71.47C37.723 73.7813 36.4147 76.9066 36.4147 80.164C36.4147 83.4214 37.723 86.5467 40.0543 88.858C41.206 90 42.5757 90.9063 44.0847 91.5248C45.5937 92.1433 47.212 92.4617 48.8465 92.4617C50.481 92.4617 52.0994 92.1433 53.6083 91.5248C55.1173 90.9063 56.4871 90 57.6388 88.858C59.97 86.5467 61.2783 83.4214 61.2783 80.164C61.2783 76.9066 59.97 73.7813 57.6388 71.47C56.4859 70.3302 55.1157 69.4258 53.6069 68.8086C52.0981 68.1915 50.4803 67.8738 48.8465 67.8738C47.2127 67.8738 45.595 68.1915 44.0862 68.8086C42.5774 69.4258 41.2072 70.3302 40.0543 71.47ZM24.7102 92.84C24.3216 92.4774 23.8065 92.2752 23.2711 92.2752C22.7356 92.2752 22.2206 92.4774 21.8319 92.84L20.7472 93.912C20.3677 94.2869 20.1545 94.7947 20.1545 95.324C20.1545 95.8534 20.3677 96.3611 20.7472 96.736L32.0613 107.914C32.25 108.1 32.4741 108.248 32.7209 108.349C32.9677 108.45 33.2322 108.502 33.4994 108.502C33.7666 108.502 34.0312 108.45 34.2779 108.349C34.5247 108.248 34.7489 108.1 34.9376 107.914L36.0243 106.842C36.4038 106.467 36.617 105.959 36.617 105.43C36.617 104.901 36.4038 104.393 36.0243 104.018L24.7102 92.84Z" fill="#5F4401"/>
<path d="M81.2419 40.8899L70.4702 51.5299L77.8315 58.8039L88.6052 48.1619L81.2419 40.8899Z" fill="#5F4401"/>
<path d="M79.2654 63.0541L65.0466 77.1001C65.5549 79.7096 65.4081 82.4019 64.6191 84.9429C63.83 87.4839 62.4225 89.7966 60.519 91.6801C58.9899 93.1946 57.1718 94.3965 55.1693 95.2166C53.1668 96.0367 51.0193 96.4589 48.8505 96.4589C46.6816 96.4589 44.5342 96.0367 42.5316 95.2166C40.5291 94.3965 38.711 93.1946 37.182 91.6801C34.0936 88.618 32.3604 84.4776 32.3604 80.1621C32.3604 75.8466 34.0936 71.7062 37.182 68.6441C38.7089 67.127 40.5268 65.9238 42.5302 65.1046C44.5335 64.2854 46.6822 63.8664 48.8515 63.8721C49.8903 63.8735 50.9267 63.9706 51.9471 64.1621L66.1659 50.1161L70.596 45.7421C61.6463 41.0181 51.8171 41.5261 46.0321 47.2381C44.7567 48.4976 43.717 49.9688 42.9609 51.5841C41.7743 54.1374 39.8539 56.2924 37.437 57.7828C35.0201 59.2731 32.2127 60.0336 29.3616 59.9701C25.8771 59.7273 22.3797 60.2071 19.0953 61.3784C15.8109 62.5497 12.8126 64.3865 10.2943 66.7701C-0.812583 77.7601 1.72648 98.1561 15.9798 112.238C23.3417 119.87 33.459 124.341 44.143 124.684C47.4308 124.78 50.7047 124.225 53.7699 123.05C56.8351 121.875 59.629 120.106 61.9855 117.846C64.3496 115.4 66.1803 112.503 67.3652 109.334C68.5501 106.166 69.0641 102.792 68.8755 99.4201C68.813 96.6108 69.5937 93.8458 71.12 91.4714C72.6462 89.097 74.8501 87.2188 77.4556 86.0721C79.1977 85.3128 80.7817 84.242 82.1274 82.9141C87.9043 77.2061 88.4243 67.5141 83.6651 58.6961L79.2573 63.0501L79.2654 63.0541ZM38.9004 109.666L37.8157 110.738C37.2515 111.299 36.5796 111.743 35.8392 112.045C35.0989 112.347 34.3048 112.501 33.5034 112.498C32.7013 112.501 31.9065 112.348 31.1654 112.045C30.4244 111.743 29.7518 111.299 29.187 110.738L17.8749 99.5601C16.7392 98.4339 16.1018 96.9112 16.1018 95.3241C16.1018 93.737 16.7392 92.2143 17.8749 91.0881L18.9596 90.0161C20.1227 88.9244 21.668 88.3153 23.275 88.3153C24.882 88.3153 26.4273 88.9244 27.5904 90.0161L38.9045 101.194C40.0426 102.319 40.6813 103.843 40.6805 105.431C40.6797 107.019 40.0396 108.542 38.9004 109.666Z" fill="#5F4401"/>
<path d="M84.1101 38.0561L91.4714 45.3301L102.245 34.6881L98.6681 31.1541L94.8839 27.4141L84.1101 38.0561Z" fill="#5F4401"/>
<path d="M126.033 22.642L123.646 20.284L124.134 19.8C124.659 19.2799 124.953 18.5764 124.953 17.843C124.953 17.1097 124.659 16.4061 124.134 15.886L113.904 5.78203C113.375 5.28032 112.668 5.00008 111.933 5.00008C111.198 5.00008 110.491 5.28032 109.962 5.78203L109.444 6.29403L107.024 3.90403C106.837 3.71277 106.613 3.56011 106.366 3.45496C106.118 3.34981 105.852 3.29428 105.582 3.29161C105.312 3.28893 105.045 3.33916 104.795 3.43938C104.545 3.53959 104.318 3.68778 104.127 3.87529C103.936 4.0628 103.785 4.28589 103.683 4.53153C103.58 4.77717 103.528 5.04044 103.53 5.306C103.532 5.57155 103.588 5.83406 103.694 6.07821C103.8 6.32236 103.954 6.54327 104.148 6.72803L106.586 9.12803L102.34 13.31L100.279 11.274C100.092 11.0828 99.8677 10.9301 99.62 10.825C99.3723 10.7198 99.1059 10.6643 98.8362 10.6616C98.5665 10.6589 98.299 10.7092 98.0492 10.8094C97.7994 10.9096 97.5724 11.0578 97.3814 11.2453C97.1905 11.4328 97.0393 11.6559 96.9368 11.9015C96.8343 12.1472 96.7826 12.4104 96.7845 12.676C96.7865 12.9415 96.8421 13.2041 96.9482 13.4482C97.0543 13.6924 97.2087 13.9133 97.4024 14.098L99.8928 16.558L95.7876 22.642L96.3198 23.168L101.524 28.31L107.077 33.8L113.273 29.72L115.684 32.102C115.871 32.2933 116.095 32.446 116.342 32.5511C116.59 32.6563 116.856 32.7118 117.126 32.7145C117.396 32.7171 117.663 32.6669 117.913 32.5667C118.163 32.4665 118.39 32.3183 118.581 32.1308C118.772 31.9433 118.923 31.7202 119.026 31.4745C119.128 31.2289 119.18 30.9656 119.178 30.7001C119.176 30.4345 119.12 30.172 119.014 29.9279C118.908 29.6837 118.754 29.4628 118.56 29.278L116.553 27.296L120.778 23.122L123.157 25.472C123.539 25.8369 124.052 26.0392 124.585 26.0354C125.117 26.0317 125.627 25.822 126.004 25.4517C126.381 25.0814 126.596 24.5801 126.601 24.0557C126.606 23.5312 126.402 23.0257 126.033 22.648V22.642Z" fill="#5F4401"/>
</svg>
