<svg width="46" height="46" viewBox="0 0 46 46" fill="none" xmlns="http://www.w3.org/2000/svg">
<path d="M31.499 16.7007C31.8094 14.6764 31.4989 13.3269 30.4123 12.0812C29.2222 10.6798 27.0489 10.1089 24.2547 10.1089H16.2342C15.6651 10.1089 15.1993 10.5241 15.0959 11.0951L11.7324 32.3756C11.6807 32.7909 11.9912 33.1542 12.4051 33.1542H17.3726L17.0104 35.3341C16.9587 35.6975 17.2174 36.0089 17.6314 36.0089H21.8227C22.3401 36.0089 22.7541 35.6456 22.8058 35.1784L23.6855 29.6766C23.7372 29.2095 24.2029 28.8462 24.6686 28.8462H25.2896C29.3257 28.8462 32.5338 27.1852 33.4653 22.4101C33.8275 20.4377 33.6722 18.7249 32.6373 17.583C32.3269 17.2197 31.9647 16.9602 31.499 16.7007Z" fill="#009CDE"/>
<path d="M31.4989 16.7007C31.8094 14.6764 31.4989 13.3269 30.4123 12.0812C29.2222 10.6798 27.0489 10.1089 24.2547 10.1089H16.2342C15.6651 10.1089 15.1993 10.5241 15.0959 11.0951L11.7324 32.3756C11.6807 32.7908 11.9912 33.1542 12.4051 33.1542H17.3726L18.5628 25.4724C18.6662 24.9015 19.132 24.4862 19.7011 24.4862H22.0814C26.7384 24.4862 30.3606 22.6177 31.3955 17.1159C31.4472 17.0121 31.4472 16.8564 31.4989 16.7007Z" fill="#012169"/>
<path d="M19.9599 16.7526C20.0116 16.3892 20.4773 15.9221 20.943 15.9221H27.2559C27.9803 15.9221 28.7047 15.974 29.3257 16.0778C29.8949 16.1816 30.9298 16.4412 31.4472 16.7526C31.7577 14.7283 31.4472 13.3788 30.3606 12.1331C29.2222 10.6798 27.0489 10.1089 24.2547 10.1089H16.2342C15.6651 10.1089 15.1993 10.5241 15.0959 11.0951L11.7324 32.3756C11.6807 32.7908 11.9912 33.1542 12.4051 33.1542H17.3726L19.9599 16.7526Z" fill="#003087"/>
</svg>
