<svg width="175" height="140" viewBox="0 0 175 140" fill="none" xmlns="http://www.w3.org/2000/svg">
<path d="M161.328 67.8125H13.6719C12.2228 67.816 10.8343 68.278 9.80967 69.0977C8.78501 69.9175 8.20745 71.0282 8.20312 72.1875V115.938C8.20745 117.097 8.78501 118.208 9.80967 119.027C10.8343 119.847 12.2228 120.309 13.6719 120.312H24.6094V89.6875H38.2812V111.562H49.2188V89.6875H60.1562V111.562H71.0938V89.6875H82.0312V111.562H92.9688V89.6875H103.906V111.562H114.844V89.6875H125.781V111.562H136.719V89.6875H155.859V120.312H161.328C162.777 120.309 164.166 119.847 165.19 119.027C166.215 118.208 166.793 117.097 166.797 115.938V72.1875C166.793 71.0282 166.215 69.9175 165.19 69.0977C164.166 68.278 162.777 67.816 161.328 67.8125ZM27.3438 83.125H16.4062V74.375H27.3438V83.125ZM49.2188 83.125H38.2812V74.375H49.2188V83.125ZM71.0938 83.125H60.1562V74.375H71.0938V83.125ZM92.9688 83.125H82.0312V74.375H92.9688V83.125ZM114.844 83.125H103.906V74.375H114.844V83.125ZM136.719 83.125H125.781V74.375H136.719V83.125ZM158.594 83.125H147.656V74.375H158.594V83.125Z" fill="#CAB998" fill-opacity="0.99"/>
<path d="M139.453 59.0625C142.473 59.0625 144.922 57.1037 144.922 54.6875C144.922 52.2713 142.473 50.3125 139.453 50.3125C136.433 50.3125 133.984 52.2713 133.984 54.6875C133.984 57.1037 136.433 59.0625 139.453 59.0625Z" fill="#CAB998" fill-opacity="0.99"/>
<path d="M82.0312 50.3125V59.0625H92.9688V50.3125H87.5H82.0312Z" fill="#CAB998" fill-opacity="0.99"/>
<path d="M30.0781 43.75C33.0984 43.75 35.5469 41.7912 35.5469 39.375C35.5469 36.9588 33.0984 35 30.0781 35C27.0578 35 24.6094 36.9588 24.6094 39.375C24.6094 41.7912 27.0578 43.75 30.0781 43.75Z" fill="#CAB998" fill-opacity="0.99"/>
<path d="M161.328 65.625H103.906V59.0625C103.906 58.4823 103.618 57.9259 103.105 57.5157C102.593 57.1055 101.897 56.875 101.172 56.875H95.7031V50.3125C95.7031 49.7323 95.415 49.1759 94.9022 48.7657C94.3895 48.3555 93.694 48.125 92.9688 48.125H90.2344V45.9375C90.2344 44.197 89.3701 42.5278 87.8317 41.2971C86.2934 40.0664 84.2069 39.375 82.0312 39.375H60.1562C59.431 39.375 58.7355 39.1445 58.2228 38.7343C57.71 38.3241 57.4219 37.7677 57.4219 37.1875C57.4219 36.6073 57.71 36.0509 58.2228 35.6407C58.7355 35.2305 59.431 35 60.1562 35H131.25V30.625H60.1562C57.9806 30.625 55.8941 31.3164 54.3558 32.5471C52.8174 33.7778 51.9531 35.447 51.9531 37.1875C51.9531 38.928 52.8174 40.5972 54.3558 41.8279C55.8941 43.0586 57.9806 43.75 60.1562 43.75H82.0312C82.7565 43.75 83.452 43.9805 83.9647 44.3907C84.4775 44.8009 84.7656 45.3573 84.7656 45.9375V48.125H82.0312C81.306 48.125 80.6105 48.3555 80.0978 48.7657C79.585 49.1759 79.2969 49.7323 79.2969 50.3125V56.875H73.8281C73.1029 56.875 72.4074 57.1055 71.8946 57.5157C71.3818 57.9259 71.0938 58.4823 71.0938 59.0625V65.625H13.6719C11.4963 65.625 9.40977 66.3164 7.87139 67.5471C6.33301 68.7778 5.46875 70.447 5.46875 72.1875V115.938C5.46875 117.678 6.33301 119.347 7.87139 120.578C9.40977 121.809 11.4963 122.5 13.6719 122.5H161.328C163.504 122.5 165.59 121.809 167.129 120.578C168.667 119.347 169.531 117.678 169.531 115.938V72.1875C169.531 70.447 168.667 68.7778 167.129 67.5471C165.59 66.3164 163.504 65.625 161.328 65.625ZM84.7656 52.5H90.2344V56.875H84.7656V52.5ZM76.5625 61.25H98.4375V65.625H76.5625V61.25ZM57.4219 91.875V111.562C57.4219 112.143 57.71 112.699 58.2228 113.109C58.7355 113.52 59.431 113.75 60.1562 113.75H62.8906V118.125H46.4844V113.75H49.2188C49.944 113.75 50.6395 113.52 51.1522 113.109C51.665 112.699 51.9531 112.143 51.9531 111.562V91.875H57.4219ZM79.2969 91.875V111.562C79.2969 112.143 79.585 112.699 80.0978 113.109C80.6105 113.52 81.306 113.75 82.0312 113.75H84.7656V118.125H68.3594V113.75H71.0938C71.819 113.75 72.5145 113.52 73.0272 113.109C73.54 112.699 73.8281 112.143 73.8281 111.562V91.875H79.2969ZM101.172 91.875V111.562C101.172 112.143 101.46 112.699 101.973 113.109C102.486 113.52 103.181 113.75 103.906 113.75H106.641V118.125H90.2344V113.75H92.9688C93.694 113.75 94.3895 113.52 94.9022 113.109C95.415 112.699 95.7031 112.143 95.7031 111.562V91.875H101.172ZM123.047 91.875V111.562C123.047 112.143 123.335 112.699 123.848 113.109C124.361 113.52 125.056 113.75 125.781 113.75H128.516V118.125H112.109V113.75H114.844C115.569 113.75 116.264 113.52 116.777 113.109C117.29 112.699 117.578 112.143 117.578 111.562V91.875H123.047ZM128.516 109.375V91.875H133.984V109.375H128.516ZM112.109 109.375H106.641V91.875H112.109V109.375ZM90.2344 109.375H84.7656V91.875H90.2344V109.375ZM68.3594 109.375H62.8906V91.875H68.3594V109.375ZM46.4844 109.375H41.0156V91.875H46.4844V109.375ZM38.2812 113.75H41.0156V118.125H27.3438V91.875H35.5469V111.562C35.5469 112.143 35.835 112.699 36.3478 113.109C36.8605 113.52 37.556 113.75 38.2812 113.75ZM133.984 118.125V113.75H136.719C137.444 113.75 138.139 113.52 138.652 113.109C139.165 112.699 139.453 112.143 139.453 111.562V91.875H153.125V118.125H133.984ZM164.062 115.938C164.062 116.518 163.774 117.074 163.262 117.484C162.749 117.895 162.053 118.125 161.328 118.125H158.594V89.6875C158.594 89.1073 158.306 88.5509 157.793 88.1407C157.28 87.7305 156.585 87.5 155.859 87.5H24.6094C23.8842 87.5 23.1887 87.7305 22.6759 88.1407C22.1631 88.5509 21.875 89.1073 21.875 89.6875V118.125H13.6719C12.9467 118.125 12.2512 117.895 11.7384 117.484C11.2256 117.074 10.9375 116.518 10.9375 115.938V72.1875C10.9375 71.6073 11.2256 71.0509 11.7384 70.6407C12.2512 70.2305 12.9467 70 13.6719 70H161.328C162.053 70 162.749 70.2305 163.262 70.6407C163.774 71.0509 164.062 71.6073 164.062 72.1875V115.938ZM30.0781 45.9375C32.2537 45.9375 34.3402 45.2461 35.8786 44.0154C37.417 42.7847 38.2812 41.1155 38.2812 39.375V19.6875H49.2188V15.3125H32.8125V33.215C31.9368 32.9559 31.0117 32.8197 30.0781 32.8125C27.9025 32.8125 25.816 33.5039 24.2776 34.7346C22.7393 35.9653 21.875 37.6345 21.875 39.375C21.875 41.1155 22.7393 42.7847 24.2776 44.0154C25.816 45.2461 27.9025 45.9375 30.0781 45.9375ZM30.0781 37.1875C30.6189 37.1875 31.1476 37.3158 31.5973 37.5562C32.0469 37.7965 32.3974 38.1382 32.6044 38.5379C32.8113 38.9376 32.8655 39.3774 32.76 39.8018C32.6545 40.2261 32.394 40.6159 32.0116 40.9218C31.6292 41.2277 31.142 41.4361 30.6116 41.5205C30.0812 41.6049 29.5314 41.5616 29.0317 41.396C28.5321 41.2304 28.105 40.95 27.8046 40.5903C27.5041 40.2306 27.3438 39.8076 27.3438 39.375C27.3438 38.7948 27.6318 38.2384 28.1446 37.8282C28.6574 37.418 29.3529 37.1875 30.0781 37.1875Z" fill="#5F4401"/>
<path d="M139.453 61.25C141.629 61.25 143.715 60.5586 145.254 59.3279C146.792 58.0972 147.656 56.428 147.656 54.6875V35H158.594V30.625H142.188V48.5275C141.312 48.2684 140.387 48.1322 139.453 48.125C137.278 48.125 135.191 48.8164 133.653 50.0471C132.114 51.2778 131.25 52.947 131.25 54.6875C131.25 56.428 132.114 58.0972 133.653 59.3279C135.191 60.5586 137.278 61.25 139.453 61.25ZM139.453 52.5C139.994 52.5 140.523 52.6283 140.972 52.8687C141.422 53.109 141.772 53.4507 141.979 53.8504C142.186 54.2501 142.24 54.6899 142.135 55.1143C142.029 55.5386 141.769 55.9284 141.387 56.2343C141.004 56.5402 140.517 56.7486 139.987 56.833C139.456 56.9174 138.906 56.8741 138.407 56.7085C137.907 56.5429 137.48 56.2625 137.18 55.9028C136.879 55.5431 136.719 55.1201 136.719 54.6875C136.719 54.1073 137.007 53.5509 137.52 53.1407C138.032 52.7305 138.728 52.5 139.453 52.5ZM27.3438 72.1875H16.4062C15.681 72.1875 14.9856 72.418 14.4728 72.8282C13.96 73.2384 13.6719 73.7948 13.6719 74.375V83.125C13.6719 83.7052 13.96 84.2616 14.4728 84.6718C14.9856 85.082 15.681 85.3125 16.4062 85.3125H27.3438C28.069 85.3125 28.7645 85.082 29.2772 84.6718C29.79 84.2616 30.0781 83.7052 30.0781 83.125V74.375C30.0781 73.7948 29.79 73.2384 29.2772 72.8282C28.7645 72.418 28.069 72.1875 27.3438 72.1875ZM24.6094 80.9375H19.1406V76.5625H24.6094V80.9375ZM49.2188 72.1875H38.2812C37.556 72.1875 36.8605 72.418 36.3478 72.8282C35.835 73.2384 35.5469 73.7948 35.5469 74.375V83.125C35.5469 83.7052 35.835 84.2616 36.3478 84.6718C36.8605 85.082 37.556 85.3125 38.2812 85.3125H49.2188C49.944 85.3125 50.6395 85.082 51.1522 84.6718C51.665 84.2616 51.9531 83.7052 51.9531 83.125V74.375C51.9531 73.7948 51.665 73.2384 51.1522 72.8282C50.6395 72.418 49.944 72.1875 49.2188 72.1875ZM46.4844 80.9375H41.0156V76.5625H46.4844V80.9375ZM71.0938 72.1875H60.1562C59.431 72.1875 58.7355 72.418 58.2228 72.8282C57.71 73.2384 57.4219 73.7948 57.4219 74.375V83.125C57.4219 83.7052 57.71 84.2616 58.2228 84.6718C58.7355 85.082 59.431 85.3125 60.1562 85.3125H71.0938C71.819 85.3125 72.5145 85.082 73.0272 84.6718C73.54 84.2616 73.8281 83.7052 73.8281 83.125V74.375C73.8281 73.7948 73.54 73.2384 73.0272 72.8282C72.5145 72.418 71.819 72.1875 71.0938 72.1875ZM68.3594 80.9375H62.8906V76.5625H68.3594V80.9375ZM92.9688 72.1875H82.0312C81.306 72.1875 80.6105 72.418 80.0978 72.8282C79.585 73.2384 79.2969 73.7948 79.2969 74.375V83.125C79.2969 83.7052 79.585 84.2616 80.0978 84.6718C80.6105 85.082 81.306 85.3125 82.0312 85.3125H92.9688C93.694 85.3125 94.3895 85.082 94.9022 84.6718C95.415 84.2616 95.7031 83.7052 95.7031 83.125V74.375C95.7031 73.7948 95.415 73.2384 94.9022 72.8282C94.3895 72.418 93.694 72.1875 92.9688 72.1875ZM90.2344 80.9375H84.7656V76.5625H90.2344V80.9375ZM114.844 72.1875H103.906C103.181 72.1875 102.486 72.418 101.973 72.8282C101.46 73.2384 101.172 73.7948 101.172 74.375V83.125C101.172 83.7052 101.46 84.2616 101.973 84.6718C102.486 85.082 103.181 85.3125 103.906 85.3125H114.844C115.569 85.3125 116.264 85.082 116.777 84.6718C117.29 84.2616 117.578 83.7052 117.578 83.125V74.375C117.578 73.7948 117.29 73.2384 116.777 72.8282C116.264 72.418 115.569 72.1875 114.844 72.1875ZM112.109 80.9375H106.641V76.5625H112.109V80.9375ZM136.719 72.1875H125.781C125.056 72.1875 124.361 72.418 123.848 72.8282C123.335 73.2384 123.047 73.7948 123.047 74.375V83.125C123.047 83.7052 123.335 84.2616 123.848 84.6718C124.361 85.082 125.056 85.3125 125.781 85.3125H136.719C137.444 85.3125 138.139 85.082 138.652 84.6718C139.165 84.2616 139.453 83.7052 139.453 83.125V74.375C139.453 73.7948 139.165 73.2384 138.652 72.8282C138.139 72.418 137.444 72.1875 136.719 72.1875ZM133.984 80.9375H128.516V76.5625H133.984V80.9375ZM158.594 72.1875H147.656C146.931 72.1875 146.236 72.418 145.723 72.8282C145.21 73.2384 144.922 73.7948 144.922 74.375V83.125C144.922 83.7052 145.21 84.2616 145.723 84.6718C146.236 85.082 146.931 85.3125 147.656 85.3125H158.594C159.319 85.3125 160.014 85.082 160.527 84.6718C161.04 84.2616 161.328 83.7052 161.328 83.125V74.375C161.328 73.7948 161.04 73.2384 160.527 72.8282C160.014 72.418 159.319 72.1875 158.594 72.1875ZM155.859 80.9375H150.391V76.5625H155.859V80.9375Z" fill="#5F4401"/>
</svg>
